<svg width="100" height="20" viewBox="0 0 100 20" fill="none"
  xmlns="http://www.w3.org/2000/svg">
  <g clip-path="url(#clip0_7225_303)">
    <path d="M9.99957 0.774375C10.0868 0.774375 10.1443 0.933437 10.1443 0.933437L12.8961 6.79563L19.3739 7.78531L14.6868 12.5916L15.7933 19.3731L9.99957 16.1688L4.20582 19.3731L5.31238 12.5916L0.625192 7.785L7.103 6.79531L9.85238 0.938125C9.85238 0.938125 9.91238 0.774375 9.99957 0.774375ZM9.99957 0C9.75738 0 9.53707 0.14 9.43363 0.359375L6.67894 6.2275L0.530817 7.16719C0.299255 7.2025 0.107067 7.36469 0.03238 7.58687C-0.041995 7.80875 0.0139425 8.05375 0.177692 8.22156L4.64457 12.8019L3.58894 19.2719C3.55019 19.5081 3.64988 19.7459 3.84582 19.8834C3.95332 19.9594 4.07925 19.9978 4.2055 19.9978C4.30925 19.9978 4.41363 19.9716 4.508 19.9197L9.99925 16.8825L15.4905 19.9197C15.5849 19.9716 15.6893 19.9978 15.793 19.9978C15.9193 19.9978 16.0455 19.9594 16.1527 19.8834C16.3486 19.7459 16.4483 19.5081 16.4096 19.2719L15.3539 12.8019L19.8208 8.22156C19.9843 8.05375 20.0405 7.80875 19.9661 7.58687C19.8918 7.36469 19.6993 7.20281 19.4677 7.16719L13.3196 6.22781L10.5655 0.359375C10.4624 0.14 10.2418 0 9.99957 0Z" fill="#FAFAFA"/>
    <path d="M9.99962 0.774414C10.0868 0.774414 10.1443 0.933477 10.1443 0.933477L12.8962 6.79566L19.374 7.78535L14.6868 12.5916L15.7934 19.3732L9.99962 16.1688L4.20587 19.3732L5.31243 12.5916L0.625244 7.78504L7.10306 6.79535L9.85243 0.938164C9.85243 0.938164 9.91243 0.774414 9.99962 0.774414Z" fill="#E0B078"/>
  </g>
  <g clip-path="url(#clip1_7225_303)">
    <path d="M29.9993 0.774375C30.0865 0.774375 30.144 0.933437 30.144 0.933437L32.8959 6.79563L39.3737 7.78531L34.6865 12.5916L35.7931 19.3731L29.9993 16.1688L24.2056 19.3731L25.3121 12.5916L20.6249 7.785L27.1028 6.79531L29.8521 0.938125C29.8521 0.938125 29.9121 0.774375 29.9993 0.774375ZM29.9993 0C29.7571 0 29.5368 0.14 29.4334 0.359375L26.6787 6.2275L20.5306 7.16719C20.299 7.2025 20.1068 7.36469 20.0321 7.58687C19.9578 7.80875 20.0137 8.05375 20.1774 8.22156L24.6443 12.8019L23.5887 19.2719C23.5499 19.5081 23.6496 19.7459 23.8456 19.8834C23.9531 19.9594 24.079 19.9978 24.2053 19.9978C24.309 19.9978 24.4134 19.9716 24.5078 19.9197L29.999 16.8825L35.4903 19.9197C35.5846 19.9716 35.689 19.9978 35.7928 19.9978C35.919 19.9978 36.0453 19.9594 36.1524 19.8834C36.3484 19.7459 36.4481 19.5081 36.4093 19.2719L35.3537 12.8019L39.8206 8.22156C39.984 8.05375 40.0403 7.80875 39.9659 7.58687C39.8915 7.36469 39.699 7.20281 39.4674 7.16719L33.3193 6.22781L30.5653 0.359375C30.4621 0.14 30.2415 0 29.9993 0Z" fill="#FAFAFA"/>
    <path d="M29.9994 0.774414C30.0866 0.774414 30.1441 0.933477 30.1441 0.933477L32.8959 6.79566L39.3738 7.78535L34.6866 12.5916L35.7931 19.3732L29.9994 16.1688L24.2056 19.3732L25.3122 12.5916L20.625 7.78504L27.1028 6.79535L29.8522 0.938164C29.8522 0.938164 29.9122 0.774414 29.9994 0.774414Z" fill="#E0B078"/>
  </g>
  <g clip-path="url(#clip2_7225_303)">
    <path d="M49.9993 0.774375C50.0865 0.774375 50.144 0.933437 50.144 0.933437L52.8959 6.79563L59.3737 7.78531L54.6865 12.5916L55.7931 19.3731L49.9993 16.1688L44.2056 19.3731L45.3121 12.5916L40.6249 7.785L47.1028 6.79531L49.8521 0.938125C49.8521 0.938125 49.9121 0.774375 49.9993 0.774375ZM49.9993 0C49.7571 0 49.5368 0.14 49.4334 0.359375L46.6787 6.2275L40.5306 7.16719C40.299 7.2025 40.1068 7.36469 40.0321 7.58687C39.9578 7.80875 40.0137 8.05375 40.1774 8.22156L44.6443 12.8019L43.5887 19.2719C43.5499 19.5081 43.6496 19.7459 43.8456 19.8834C43.9531 19.9594 44.079 19.9978 44.2053 19.9978C44.309 19.9978 44.4134 19.9716 44.5078 19.9197L49.999 16.8825L55.4903 19.9197C55.5846 19.9716 55.689 19.9978 55.7928 19.9978C55.919 19.9978 56.0453 19.9594 56.1524 19.8834C56.3484 19.7459 56.4481 19.5081 56.4093 19.2719L55.3537 12.8019L59.8206 8.22156C59.984 8.05375 60.0403 7.80875 59.9659 7.58687C59.8915 7.36469 59.699 7.20281 59.4674 7.16719L53.3193 6.22781L50.5653 0.359375C50.4621 0.14 50.2415 0 49.9993 0Z" fill="#FAFAFA"/>
    <path d="M49.9994 0.774414C50.0866 0.774414 50.1441 0.933477 50.1441 0.933477L52.8959 6.79566L59.3738 7.78535L54.6866 12.5916L55.7931 19.3732L49.9994 16.1688L44.2056 19.3732L45.3122 12.5916L40.625 7.78504L47.1028 6.79535L49.8522 0.938164C49.8522 0.938164 49.9122 0.774414 49.9994 0.774414Z" fill="#E0B078"/>
  </g>
  <g clip-path="url(#clip3_7225_303)">
    <path d="M69.9993 0.774375C70.0865 0.774375 70.144 0.933437 70.144 0.933437L72.8959 6.79563L79.3737 7.78531L74.6865 12.5916L75.7931 19.3731L69.9993 16.1688L64.2056 19.3731L65.3121 12.5916L60.6249 7.785L67.1028 6.79531L69.8521 0.938125C69.8521 0.938125 69.9121 0.774375 69.9993 0.774375ZM69.9993 0C69.7571 0 69.5368 0.14 69.4334 0.359375L66.6787 6.2275L60.5306 7.16719C60.299 7.2025 60.1068 7.36469 60.0321 7.58687C59.9578 7.80875 60.0137 8.05375 60.1774 8.22156L64.6443 12.8019L63.5887 19.2719C63.5499 19.5081 63.6496 19.7459 63.8456 19.8834C63.9531 19.9594 64.079 19.9978 64.2053 19.9978C64.309 19.9978 64.4134 19.9716 64.5078 19.9197L69.999 16.8825L75.4903 19.9197C75.5846 19.9716 75.689 19.9978 75.7928 19.9978C75.919 19.9978 76.0453 19.9594 76.1524 19.8834C76.3484 19.7459 76.4481 19.5081 76.4093 19.2719L75.3537 12.8019L79.8206 8.22156C79.984 8.05375 80.0403 7.80875 79.9659 7.58687C79.8915 7.36469 79.699 7.20281 79.4674 7.16719L73.3193 6.22781L70.5653 0.359375C70.4621 0.14 70.2415 0 69.9993 0Z" fill="#FAFAFA"/>
    <path d="M69.9994 0.774414C70.0866 0.774414 70.1441 0.933477 70.1441 0.933477L72.8959 6.79566L79.3738 7.78535L74.6866 12.5916L75.7931 19.3732L69.9994 16.1688L64.2056 19.3732L65.3122 12.5916L60.625 7.78504L67.1028 6.79535L69.8522 0.938164C69.8522 0.938164 69.9122 0.774414 69.9994 0.774414Z" fill="#E0B078"/>
  </g>
  <g clip-path="url(#clip4_7225_303)">
    <path d="M89.9993 0.774375C90.0865 0.774375 90.144 0.933437 90.144 0.933437L92.8959 6.79563L99.3737 7.78531L94.6865 12.5916L95.7931 19.3731L89.9993 16.1688L84.2056 19.3731L85.3121 12.5916L80.6249 7.785L87.1028 6.79531L89.8521 0.938125C89.8521 0.938125 89.9121 0.774375 89.9993 0.774375ZM89.9993 0C89.7571 0 89.5368 0.14 89.4334 0.359375L86.6787 6.2275L80.5306 7.16719C80.299 7.2025 80.1068 7.36469 80.0321 7.58687C79.9578 7.80875 80.0137 8.05375 80.1774 8.22156L84.6443 12.8019L83.5887 19.2719C83.5499 19.5081 83.6496 19.7459 83.8456 19.8834C83.9531 19.9594 84.079 19.9978 84.2053 19.9978C84.309 19.9978 84.4134 19.9716 84.5078 19.9197L89.999 16.8825L95.4903 19.9197C95.5846 19.9716 95.689 19.9978 95.7928 19.9978C95.919 19.9978 96.0453 19.9594 96.1524 19.8834C96.3484 19.7459 96.4481 19.5081 96.4093 19.2719L95.3537 12.8019L99.8206 8.22156C99.984 8.05375 100.04 7.80875 99.9659 7.58687C99.8915 7.36469 99.699 7.20281 99.4674 7.16719L93.3193 6.22781L90.5653 0.359375C90.4621 0.14 90.2415 0 89.9993 0Z" fill="#FAFAFA"/>
    <path d="M89.9994 0.774414C90.0866 0.774414 90.1441 0.933477 90.1441 0.933477L92.8959 6.79566L99.3738 7.78535L94.6866 12.5916L95.7931 19.3732L89.9994 16.1688L84.2056 19.3732L85.3122 12.5916L80.625 7.78504L87.1028 6.79535L89.8522 0.938164C89.8522 0.938164 89.9122 0.774414 89.9994 0.774414Z" fill="#E0B078"/>
  </g>
  <defs>
    <clipPath id="clip0_7225_303">
      <rect width="20" height="20" fill="white"/>
    </clipPath>
    <clipPath id="clip1_7225_303">
      <rect width="20" height="20" fill="white" transform="translate(20)"/>
    </clipPath>
    <clipPath id="clip2_7225_303">
      <rect width="20" height="20" fill="white" transform="translate(40)"/>
    </clipPath>
    <clipPath id="clip3_7225_303">
      <rect width="20" height="20" fill="white" transform="translate(60)"/>
    </clipPath>
    <clipPath id="clip4_7225_303">
      <rect width="20" height="20" fill="white" transform="translate(80)"/>
    </clipPath>
  </defs>
</svg>
