<svg width="37" height="40" viewBox="0 0 37 40" fill="none" xmlns="http://www.w3.org/2000/svg">
<path fill-rule="evenodd" clip-rule="evenodd" d="M35.7932 10.24L35.5132 9.74C35.152 9.13538 34.6426 8.63286 34.0332 8.28L20.6132 0.54C20.0056 0.1875 19.3158 0.00124 18.6132 0H18.0332C17.3306 0.00124 16.6408 0.1875 16.0332 0.54L2.61325 8.3C2.00719 8.65052 1.50377 9.15394 1.15325 9.76L0.873252 10.26C0.520752 10.8677 0.334492 11.5575 0.333252 12.26V27.76C0.334492 28.4626 0.520752 29.1524 0.873252 29.76L1.15325 30.26C1.51283 30.859 2.01423 31.3604 2.61325 31.72L16.0532 39.46C16.6578 39.8198 17.3496 40.0066 18.0532 40H18.6132C19.3158 39.9988 20.0056 39.8126 20.6132 39.46L34.0332 31.7C34.6452 31.3574 35.1506 30.852 35.4932 30.24L35.7932 29.74C36.1414 29.1306 36.3274 28.442 36.3332 27.74V12.24C36.332 11.5375 36.1458 10.8477 35.7932 10.24ZM18.0332 4H18.6132L30.3332 10.76L18.3332 17.68L6.33325 10.76L18.0332 4ZM20.3332 35L32.0332 28.24L32.3332 27.74V14.22L20.3332 21.16V35Z" fill="#111111"/>
</svg>
